<?xml version="1.0" encoding="UTF-8" standalone="no"?>
<svg
   xmlns:dc="http://purl.org/dc/elements/1.1/"
   xmlns:cc="http://creativecommons.org/ns#"
   xmlns:rdf="http://www.w3.org/1999/02/22-rdf-syntax-ns#"
   xmlns:svg="http://www.w3.org/2000/svg"
   xmlns="http://www.w3.org/2000/svg"
   xmlns:sodipodi="http://sodipodi.sourceforge.net/DTD/sodipodi-0.dtd"
   xmlns:inkscape="http://www.inkscape.org/namespaces/inkscape"
   id="Sphere_wireframe_10deg_6r"
   version="1.1"
   width="600"
   height="600"
   inkscape:version="0.91 r13725"
   sodipodi:docname="sphere.svg">
  <metadata
     id="metadata130">
    <rdf:RDF>
      <cc:Work
         rdf:about="">
        <dc:format>image/svg+xml</dc:format>
        <dc:type
           rdf:resource="http://purl.org/dc/dcmitype/StillImage" />
        <dc:title>Sphere wireframe</dc:title>
      </cc:Work>
    </rdf:RDF>
  </metadata>
  <sodipodi:namedview
     pagecolor="#ffffff"
     bordercolor="#666666"
     borderopacity="1"
     objecttolerance="10"
     gridtolerance="10"
     guidetolerance="10"
     inkscape:pageopacity="0"
     inkscape:pageshadow="2"
     inkscape:window-width="1920"
     inkscape:window-height="1022"
     id="namedview128"
     showgrid="false"
     inkscape:zoom="1.18"
     inkscape:cx="313.42529"
     inkscape:cy="307.45781"
     inkscape:window-x="0"
     inkscape:window-y="32"
     inkscape:window-maximized="1"
     inkscape:current-layer="Sphere_wireframe_10deg_6r" />
  <title
     id="title3">Sphere wireframe</title>
  <desc
     id="desc5">
     Sphere wireframe
     depicted with perspective projection

     viewer distance from center: 6r
     line distancd: 10째
     line width: 2째
     axial tilt: 37.5째
     rotation: 7.5째
     base color: #22326b

     plotted with several adapted cubic bezier-curves
     The plotcurves were calculated by some fancy python code. The bezier-curve
     controlpoints are placed on tangents of the function-curve. They are
     furthermore positioned in a way to minimize the average quadratic distance
     between the bezier-curve and the function. This gives an accuracy, so that
     the deviation is in no point greater than 0.00001.

     about: http://commons.wikimedia.org/wiki/Image:Sphere_wireframe_10deg_6r.svg
     source: http://commons.wikimedia.org/
     rights: GNU Free Documentation license,
             Creative Commons Attribution ShareAlike license
  </desc>
  <defs
     id="defs7">
    <radialGradient
       cx="-0.1"
       cy="0.1"
       r="1.2"
       fx="-0.30000001"
       fy="0.60000002"
       id="LightSpot_front"
       gradientUnits="userSpaceOnUse">
      <stop
         style="stop-color:#b6bbce; stop-opacity:1"
         offset="0"
         id="stop10" />
      <stop
         style="stop-color:#8a94ba; stop-opacity:1"
         offset="0.1"
         id="stop12" />
      <stop
         style="stop-color:#5f6c99; stop-opacity:1"
         offset="0.3"
         id="stop14" />
      <stop
         style="stop-color:#22326b; stop-opacity:1"
         offset="1"
         id="stop16" />
    </radialGradient>
    <radialGradient
       cx="0.1"
       cy="-0.1"
       r="1.2"
       fx="0.30000001"
       fy="-0.60000002"
       id="LightSpot_back"
       gradientUnits="userSpaceOnUse">
      <stop
         style="stop-color:#b6bbce; stop-opacity:1"
         offset="0"
         id="stop19" />
      <stop
         style="stop-color:#8a94ba; stop-opacity:1"
         offset="0.1"
         id="stop21" />
      <stop
         style="stop-color:#5f6c99; stop-opacity:1"
         offset="0.3"
         id="stop23" />
      <stop
         style="stop-color:#22326b; stop-opacity:1"
         offset="1"
         id="stop25" />
    </radialGradient>
  </defs>
  <g
     id="sphere"
     style="fill:#000000;stroke:none;fill-opacity:1"
     transform="matrix(277.9342,0,0,-277.9342,301.66295,298.28171)">
    <g
       id="back"
       style="opacity:0.2;fill:#000000;fill-opacity:1">
      <path
         d="m 0.00633,-0.59949 c 0.05297,-0.0016 0.10068,-0.023 0.12505,-0.05608 0.02372,-0.03219 0.02189,-0.07075 -0.00484,-0.10175 -0.02803,-0.0325 -0.07907,-0.05169 -0.13311,-0.05 -0.0538,0.00168 -0.10205,0.02378 -0.12597,0.05768 -0.0229,0.03243 -0.02015,0.07091 0.00726,0.10157 0.02826,0.03162 0.0785,0.05018 0.13161,0.04858 z m 6.4e-4,0.01233 c -0.05862,0.00176 -0.11409,-0.01871 -0.14531,-0.05361 -0.03026,-0.03381 -0.03334,-0.07625 -0.00814,-0.11205 0.02638,-0.03748 0.07971,-0.06194 0.13919,-0.06381 0.05979,-0.00188 0.11626,0.01937 0.14719,0.05536 0.02941,0.03423 0.03137,0.07676 0.00517,0.11225 -0.02694,0.0365 -0.07962,0.0601 -0.1381,0.06186 z"
         id="parallel_-80.0_back"
         inkscape:connector-curvature="0"
         style="fill:#000000;fill-opacity:1" />
      <path
         d="m 0.0126,-0.47135 c 0.09225,-0.0027 0.1776,-0.03492 0.23149,-0.08735 0.0525,-0.05107 0.06957,-0.11591 0.04651,-0.17672 -0.02337,-0.06165 -0.08549,-0.11257 -0.1689,-0.1384 -0.0857,-0.02654 -0.1842,-0.0236 -0.26636,0.00794 -0.07957,0.03056 -0.13514,0.08462 -0.15123,0.1471 -0.01595,0.06195 0.0086,0.12565 0.06692,0.1736 0.05997,0.0493 0.14909,0.07655 0.24157,0.07383 z m 6e-4,0.01336 c -0.09707,0.00284 -0.19061,-0.02574 -0.25356,-0.07746 -0.06121,-0.05028 -0.087,-0.11709 -0.07028,-0.18207 0.01688,-0.0656 0.07528,-0.12237 0.15889,-0.15442 0.08627,-0.03307 0.18968,-0.03612 0.27963,-0.00825 0.08755,0.02712 0.15275,0.08058 0.17724,0.14528 0.02414,0.06378 0.00619,0.13177 -0.04892,0.18533 -0.05659,0.05497 -0.14618,0.08875 -0.243,0.09159 z"
         id="parallel_-70.0_back"
         inkscape:connector-curvature="0"
         style="fill:#000000;fill-opacity:1" />
      <path
         d="m 0.01836,-0.33428 c 0.13685,-0.00391 0.26356,-0.05114 0.3438,-0.12813 0.07802,-0.07486 0.10387,-0.16996 0.07055,-0.25937 -0.03409,-0.0915 -0.12646,-0.16724 -0.25091,-0.20569 -0.1272,-0.0393 -0.27355,-0.03521 -0.39578,0.01104 -0.11976,0.04532 -0.20314,0.12611 -0.22641,0.21936 -0.02265,0.0908 0.01405,0.18391 0.10021,0.25407 0.08907,0.07253 0.2213,0.11263 0.35854,0.10872 z m 5.5e-4,0.01408 c -0.14159,0.00403 -0.27798,-0.0373 -0.36987,-0.11206 -0.08882,-0.07225 -0.12669,-0.16814 -0.10341,-0.26165 0.02394,-0.09617 0.10997,-0.17951 0.23358,-0.22624 0.12611,-0.04769 0.27712,-0.0519 0.40836,-0.01139 0.1285,0.03967 0.22385,0.11784 0.25894,0.21224 0.03423,0.0921 0.00751,0.19002 -0.07294,0.2671 -0.08279,0.07932 -0.2135,0.12799 -0.35466,0.132 z"
         id="parallel_-60.0_back"
         inkscape:connector-curvature="0"
         style="fill:#000000;fill-opacity:1" />
      <path
         d="m 0.02354,-0.19114 c 0.17859,-0.00495 0.34403,-0.06579 0.44889,-0.16504 0.10128,-0.09588 0.13546,-0.2176 0.09338,-0.33239 -0.04361,-0.119 -0.16443,-0.21772 -0.32778,-0.26779 -0.16614,-0.05092 -0.35744,-0.04575 -0.51721,0.01397 -0.15704,0.05871 -0.26616,0.16358 -0.29604,0.28452 -0.0288,0.11658 0.01903,0.23596 0.13071,0.32607 0.11618,0.09374 0.2888,0.14562 0.46805,0.14066 z m 4.8e-4,0.01454 c -0.18325,0.00506 -0.35972,-0.04793 -0.47847,-0.14364 -0.1141,-0.09197 -0.16298,-0.21379 -0.13358,-0.33275 0.03053,-0.12354 0.14217,-0.23067 0.30283,-0.2906 0.16337,-0.06093 0.35893,-0.06616 0.52874,-0.01412 0.16698,0.05117 0.29044,0.15201 0.33494,0.27352 0.04289,0.11714 0.00792,0.24131 -0.09557,0.33913 -0.1072,0.10132 -0.27632,0.16342 -0.45889,0.16846 z"
         id="parallel_-50.0_back"
         inkscape:connector-curvature="0"
         style="fill:#000000;fill-opacity:1" />
      <path
         d="m -0.28026,-0.95993 c -0.16948,0.04949 -0.30357,0.14183 -0.37356,0.25726 -0.06979,0.11509 -0.07035,0.24404 -0.00157,0.35939 0.06968,0.11689 0.20495,0.21044 0.37632,0.26022 0.17815,0.05176 0.37998,0.05176 0.55814,0 0.17137,-0.04978 0.30664,-0.14333 0.37632,-0.26021 0.06878,-0.11536 0.06822,-0.24431 -0.00157,-0.3594 -0.06999,-0.11543 -0.20408,-0.20777 -0.37356,-0.25726 0.01695,0.00495 0.03466,0.01061 0.053,0.0171 0.16176,0.05717 0.28515,0.15379 0.34504,0.27016 0.05946,0.11554 0.05192,0.24198 -0.02111,0.35392 -0.07462,0.11439 -0.21194,0.20492 -0.38325,0.25262 -0.17544,0.04884 -0.37244,0.04884 -0.54789,-1e-5 -0.1713,-0.04769 -0.30862,-0.13822 -0.38324,-0.25261 -0.07303,-0.11194 -0.08057,-0.23839 -0.02111,-0.35393 0.05989,-0.11636 0.18328,-0.21298 0.34504,-0.27015 0.01834,-0.00649 0.03605,-0.01215 0.053,-0.0171 z"
         id="parallel_-40.0_back"
         inkscape:connector-curvature="0"
         style="fill:#000000;fill-opacity:1" />
      <path
         d="m -0.62763,-0.77851 c -0.12894,0.10395 -0.19458,0.23614 -0.18403,0.37056 0.01063,0.13537 0.09777,0.26315 0.24408,0.35783 0.15179,0.09823 0.35549,0.15323 0.56758,0.15323 0.21209,0 0.41578,-0.055 0.56757,-0.15323 0.14631,-0.09468 0.23346,-0.22246 0.24409,-0.35783 0.01055,-0.13442 -0.05509,-0.26661 -0.18403,-0.37056 0.00784,0.00632 0.01559,0.01276 0.02324,0.01932 0.12362,0.10599 0.18389,0.23842 0.16928,0.37196 C 0.80542,-0.25253 0.71556,-0.12624 0.568,-0.03293 0.41502,0.0638 0.21158,0.11779 0,0.11779 c -0.21158,0 -0.41502,-0.05399 -0.56799,-0.15072 -0.14756,-0.09331 -0.23743,-0.2196 -0.25216,-0.3543 -0.01461,-0.13354 0.04565,-0.26597 0.16928,-0.37196 0.00765,-0.00656 0.0154,-0.013 0.02324,-0.01932 z"
         id="parallel_-30.0_back"
         inkscape:connector-curvature="0"
         style="fill:#000000;fill-opacity:1" />
      <path
         d="m -0.81647,-0.57739 c -0.09902,0.14002 -0.10859,0.2998 -0.02661,0.44439 0.08409,0.14833 0.25745,0.26819 0.48037,0.33202 0.23105,0.06617 0.49438,0.06617 0.72542,0 C 0.58563,0.13518 0.75899,0.01533 0.84308,-0.133 0.92506,-0.27759 0.91549,-0.43737 0.81647,-0.57739 c 0.0049,0.00693 0.00971,0.01392 0.01443,0.02097 0.09419,0.14064 0.09952,0.29959 0.01486,0.44276 -0.08682,0.14682 -0.26114,0.26496 -0.48384,0.32781 -0.23078,0.06514 -0.49306,0.06514 -0.72384,0 -0.2227,-0.06285 -0.39702,-0.18099 -0.48384,-0.32781 -0.08466,-0.14317 -0.07933,-0.30212 0.01486,-0.44276 0.00472,-0.00705 0.00953,-0.01404 0.01443,-0.02097 z"
         id="parallel_-20.0_back"
         inkscape:connector-curvature="0"
         style="fill:#000000;fill-opacity:1" />
      <path
         d="m -0.93192,-0.36266 c -0.05453,0.14012 -0.0284,0.28797 0.07372,0.41703 0.106,0.13396 0.28655,0.23842 0.50695,0.29326 0.22575,0.05617 0.47676,0.05617 0.7025,0 0.22041,-0.05484 0.40096,-0.15931 0.50696,-0.29327 0.10212,-0.12905 0.12824,-0.2769 0.07371,-0.41702 0.0029,0.00744 0.00564,0.01476 0.00826,0.02197 0.05061,0.13967 0.0215,0.28615 -0.08222,0.41362 -0.10767,0.13232 -0.28845,0.2352 -0.50817,0.28916 -0.22497,0.05524 -0.47461,0.05524 -0.69958,0 -0.21973,-0.05396 -0.4005,-0.15685 -0.50817,-0.28917 -0.10372,-0.12747 -0.13283,-0.27394 -0.08222,-0.41361 0.00262,-0.00721 0.00536,-0.01453 0.00826,-0.02197 z"
         id="parallel_-10.0_back"
         inkscape:connector-curvature="0"
         style="fill:#000000;fill-opacity:1" />
      <path
         d="M -0.99003,-0.14086 C -1.01347,0.0239 -0.92736,0.1875 -0.7513,0.31256 -0.56175,0.4472 -0.2861,0.52432 0.00352,0.52369 0.29066,0.52306 0.56335,0.44607 0.7513,0.31256 0.92736,0.1875 1.01347,0.02389 0.99003,-0.14086 0.99111,-0.13329 0.99208,-0.12585 0.99295,-0.11855 1.01256,0.04572 0.9231,0.20792 0.74483,0.33117 0.55505,0.46238 0.28235,0.53723 -0.00373,0.53657 -0.2872,0.53592 -0.55681,0.46119 -0.74488,0.33113 -0.92312,0.20788 -1.01256,0.0457 -0.99295,-0.11855 c 9.1e-4,-0.00759 0.00188,-0.01503 0.00292,-0.02231 z"
         id="parallel_0.0_back"
         inkscape:connector-curvature="0"
         style="fill:#000000;fill-opacity:1" />
      <path
         d="m -0.99669,0.08129 c 0.01217,0.14917 0.11793,0.29019 0.29635,0.39503 0.18752,0.11019 0.4405,0.17174 0.7038,0.1712 C 0.26439,0.64698 0.51461,0.5855 0.70045,0.47626 0.8788,0.37142 0.98453,0.23043 0.99669,0.08129 0.9961,0.08848 0.99543,0.0958 0.99465,0.10326 0.97937,0.25047 0.87227,0.38903 0.69425,0.4918 0.50744,0.59965 0.257,0.65976 -0.00344,0.65923 -0.26157,0.6587 -0.5093,0.59863 -0.69444,0.4917 -0.87235,0.38893 -0.97938,0.25042 -0.99465,0.10326 -0.99543,0.0958 -0.9961,0.08848 -0.99669,0.08129 Z"
         id="parallel_10.0_back"
         inkscape:connector-curvature="0"
         style="fill:#000000;fill-opacity:1" />
      <path
         d="m -0.95487,0.29702 c 0.0391,0.1257 0.15144,0.23993 0.31842,0.32373 C -0.45994,0.70932 -0.23392,0.75812 0,0.75812 0.23396,0.75812 0.46002,0.70931 0.63653,0.6207 0.80347,0.53691 0.91578,0.4227 0.95487,0.29702 0.95273,0.3039 0.95047,0.31089 0.9481,0.31799 0.90675,0.44126 0.79405,0.55287 0.62835,0.63458 0.45337,0.72088 0.23049,0.76833 -1e-5,0.76833 -0.23054,0.76833 -0.45345,0.72086 -0.62844,0.63454 -0.79409,0.55283 -0.90676,0.44124 -0.9481,0.31799 -0.95047,0.31089 -0.95273,0.3039 -0.95487,0.29702 Z"
         id="parallel_20.0_back"
         inkscape:connector-curvature="0"
         style="fill:#000000;fill-opacity:1" />
      <path
         d="m -0.86615,0.49979 c 0.07812,0.13537 0.25428,0.24632 0.48574,0.30581 0.24151,0.06207 0.51958,0.06205 0.76105,-6e-5 C 0.612,0.74604 0.78806,0.63511 0.86615,0.49979 0.86248,0.50615 0.85867,0.51259 0.85471,0.51911 0.77474,0.65078 0.60028,0.75816 0.37279,0.81561 0.1358,0.87547 -0.13612,0.87545 -0.37307,0.81554 -0.60042,0.75807 -0.77477,0.65072 -0.85471,0.51911 -0.85852,0.51284 -0.86233,0.5064 -0.86615,0.49979 Z"
         id="parallel_30.0_back"
         inkscape:connector-curvature="0"
         style="fill:#000000;fill-opacity:1" />
      <path
         d="m -0.73002,0.68343 c 0.09082,0.097 0.24456,0.17255 0.43189,0.21218 0.19192,0.0406 0.40512,0.04055 0.59697,-1.5e-4 C 0.48586,0.85579 0.63932,0.78031 0.73002,0.68343 0.72464,0.68917 0.71918,0.69487 0.71363,0.70052 0.62232,0.79354 0.47154,0.86559 0.28919,0.90329 0.10276,0.94184 -0.10359,0.94179 -0.28995,0.90314 -0.47197,0.86539 -0.62246,0.7934 -0.71363,0.70052 -0.71918,0.69487 -0.72464,0.68917 -0.73002,0.68343 Z"
         id="parallel_40.0_back"
         inkscape:connector-curvature="0"
         style="fill:#000000;fill-opacity:1" />
      <path
         d="m -0.53891,0.84236 c 0.1327,0.0849 0.33119,0.13405 0.5406,0.13379 C 0.20988,0.97588 0.40694,0.92679 0.53891,0.84236 0.53127,0.84725 0.52357,0.85203 0.5158,0.85671 0.38572,0.93503 0.19692,0.97994 -0.00152,0.97971 -0.19888,0.97948 -0.3864,0.93462 -0.5158,0.85671 -0.52357,0.85203 -0.53127,0.84725 -0.53891,0.84236 Z"
         id="parallel_50.0_back"
         inkscape:connector-curvature="0"
         style="fill:#000000;fill-opacity:1" />
      <path
         d="m -0.23596,0.97176 c 0.14929,0.03625 0.3226,0.03626 0.47192,0 -0.01641,0.00399 -0.03373,0.00775 -0.05192,0.01116 -0.1188,0.02224 -0.24926,0.02225 -0.36808,0 C -0.20223,0.97951 -0.21955,0.97575 -0.23596,0.97176 Z"
         id="parallel_60.0_back"
         inkscape:connector-curvature="0"
         style="fill:#000000;fill-opacity:1" />
      <path
         d="m -0.04127,-0.99915 c 0.01288,-5.3e-4 0.02975,0.18449 0.04439,0.48721 0.01539,0.31787 0.02586,0.71472 0.02723,1.03115 0.00129,0.29843 -0.00572,0.48057 -0.01849,0.48072 0.0059,-7e-5 0.01181,-1.9e-4 0.01771,-3.7e-4 C 0.04144,0.99921 0.04748,0.81272 0.04546,0.50867 0.04334,0.19079 0.03275,-0.20494 0.01791,-0.52028 0.00388,-0.81836 -0.01184,-1 -0.02357,-0.99972 c -0.0059,1.4e-4 -0.0118,3.3e-4 -0.0177,5.7e-4 z"
         id="meridian_80.0_back"
         inkscape:connector-curvature="0"
         style="fill:#000000;fill-opacity:1" />
      <path
         d="m -0.17175,-0.98514 c 0.04312,-0.00752 0.0973,0.07753 0.15191,0.23881 0.0627,0.1852 0.12031,0.45415 0.15813,0.73842 C 0.17571,0.27329 0.19021,0.54278 0.1782,0.73333 0.16781,0.89813 0.13838,0.99131 0.09555,0.99542 0.10151,0.99485 0.10747,0.99423 0.11342,0.99355 0.15614,0.98867 0.18498,0.89189 0.19424,0.72181 0.20486,0.52659 0.18873,0.25241 0.1499,-0.03125 0.11151,-0.31174 0.05455,-0.57499 -0.00681,-0.75564 c -0.05309,-0.15633 -0.10547,-0.23893 -0.1472,-0.23243 -0.00592,9.2e-4 -0.01183,0.0019 -0.01774,0.00293 z"
         id="path45"
         inkscape:connector-curvature="0"
         style="fill:#000000;fill-opacity:1" />
      <path
         d="m -0.30525,-0.95227 c 0.07523,-0.02412 0.17214,0.0474 0.2708,0.20005 0.1088,0.16834 0.21006,0.42036 0.27873,0.69379 C 0.31244,0.21296 0.3422,0.48041 0.32634,0.67871 0.31184,0.85984 0.26043,0.96872 0.18278,0.98315 0.18898,0.982 0.19507,0.98081 0.20104,0.97958 0.27703,0.96399 0.32713,0.85568 0.34111,0.67635 0.3567,0.47644 0.32604,0.20604 0.25669,-0.06788 0.18787,-0.33975 0.0873,-0.58993 -0.02041,-0.75729 c -0.09733,-0.15121 -0.19278,-0.2228 -0.26707,-0.2005 -0.00604,0.00182 -0.01196,0.00366 -0.01777,0.00552 z"
         id="path47"
         inkscape:connector-curvature="0"
         style="fill:#000000;fill-opacity:1" />
      <path
         d="m -0.44352,-0.89627 c 0.1007,-0.04983 0.2355,-0.0044 0.37584,0.12681 0.1539,0.14389 0.30051,0.37784 0.40291,0.64302 C 0.4368,0.13658 0.48533,0.40559 0.46881,0.61392 0.45363,0.80543 0.38471,0.92985 0.27675,0.96094 0.28315,0.9591 0.28942,0.95722 0.29556,0.95532 0.40179,0.92246 0.469,0.7972 0.48299,0.60575 0.4983,0.3961 0.44846,0.12589 0.3458,-0.13768 0.24399,-0.39909 0.09968,-0.62971 -0.05176,-0.77303 c -0.1394,-0.13194 -0.27348,-0.17912 -0.37408,-0.13177 -0.00603,0.00284 -0.01192,0.00568 -0.01768,0.00853 z"
         id="path49"
         inkscape:connector-curvature="0"
         style="fill:#000000;fill-opacity:1" />
      <path
         d="m -0.58664,-0.80985 c 0.11707,-0.0848 0.28404,-0.07564 0.46382,0.02555 0.19378,0.10908 0.38446,0.31491 0.52332,0.565 C 0.53816,0.0286 0.61175,0.29634 0.60282,0.51662 0.59446,0.72271 0.51454,0.86956 0.38089,0.92462 0.38728,0.92199 0.39375,0.91925 0.40031,0.91638 0.53138,0.85912 0.60884,0.71149 0.61561,0.50581 0.62291,0.28436 0.54763,0.01586 0.40867,-0.2321 c -0.13773,-0.24578 -0.3251,-0.44832 -0.5157,-0.55748 -0.17855,-0.10226 -0.34484,-0.1139 -0.4624,-0.03246 -0.00588,0.00408 -0.01162,0.00814 -0.01721,0.01219 z"
         id="path51"
         inkscape:connector-curvature="0"
         style="fill:#000000;fill-opacity:1" />
      <path
         d="m -0.73082,-0.68257 c 0.11888,-0.12728 0.30698,-0.16609 0.52033,-0.10728 0.22528,0.06211 0.45725,0.22711 0.63593,0.45233 0.17868,0.22521 0.28659,0.48863 0.29583,0.72214 C 0.73002,0.60575 0.64945,0.7801 0.49846,0.86691 0.50524,0.86301 0.51184,0.85911 0.51827,0.85522 0.66516,0.7662 0.74233,0.59205 0.73204,0.37261 0.72108,0.1388 0.61187,-0.12437 0.43251,-0.34908 c -0.17776,-0.22271 -0.40735,-0.38621 -0.63055,-0.449 -0.21067,-0.05927 -0.39713,-0.02357 -0.51689,0.09889 -0.00526,0.00537 -0.01056,0.01091 -0.01589,0.01662 z"
         id="path53"
         inkscape:connector-curvature="0"
         style="fill:#000000;fill-opacity:1" />
      <path
         d="m -0.86452,-0.5026 c 0.08022,-0.13799 0.2193,-0.22867 0.39475,-0.25736 0.17924,-0.02932 0.38564,0.00783 0.58444,0.10521 0.20271,0.09929 0.38477,0.25497 0.51433,0.43981 0.12707,0.18127 0.19581,0.37941 0.19468,0.56103 C 0.82257,0.52387 0.75458,0.67534 0.63071,0.77602 0.63725,0.7707 0.64372,0.76531 0.65012,0.75983 0.76983,0.65741 0.83414,0.50585 0.83285,0.32918 0.83153,0.1487 0.76184,-0.04737 0.63525,-0.22668 0.50619,-0.40947 0.32594,-0.56361 0.12533,-0.66273 c -0.19679,-0.09723 -0.4013,-0.13564 -0.5798,-0.10892 -0.17474,0.02615 -0.31447,0.11321 -0.39707,0.24737 -0.00442,0.00717 -0.00875,0.0144 -0.01298,0.02168 z"
         id="path55"
         inkscape:connector-curvature="0"
         style="fill:#000000;fill-opacity:1" />
      <path
         d="m -0.96452,-0.26403 c 0.0465,-0.16985 0.16559,-0.30708 0.337,-0.38832 0.173,-0.08199 0.38847,-0.10182 0.60911,-0.05603 0.22458,0.0466 0.43999,0.15817 0.60763,0.31472 0.16469,0.15379 0.27281,0.34122 0.30566,0.52982 C 0.92742,0.32303 0.88405,0.49947 0.77214,0.63545 0.77799,0.62834 0.78374,0.62116 0.78939,0.61389 0.89593,0.4769 0.93491,0.30142 0.89984,0.1166 0.86444,-0.07001 0.7557,-0.25477 0.59201,-0.40642 0.42545,-0.56072 0.2125,-0.67101 -0.00963,-0.71802 c -0.2183,-0.04621 -0.43194,-0.02842 -0.60478,0.05033 -0.17119,0.07799 -0.29203,0.21108 -0.34245,0.37714 -0.00267,0.0088 -0.00523,0.01765 -0.00766,0.02652 z"
         id="path57"
         inkscape:connector-curvature="0"
         style="fill:#000000;fill-opacity:1" />
      <path
         d="m -0.99982,0.01872 c -0.00348,-0.18581 0.0743,-0.36032 0.21972,-0.49292 0.14626,-0.13336 0.35153,-0.21576 0.57943,-0.23256 0.23171,-0.01708 0.47148,0.03477 0.67543,0.14607 0.20059,0.10947 0.35348,0.26932 0.43157,0.45119 C 0.98396,0.07134 0.98269,0.2624 0.90274,0.43018 0.90695,0.42135 0.91103,0.41245 0.91498,0.4035 0.98881,0.23607 0.98555,0.04732 0.90573,-0.13051 0.82542,-0.30946 0.67261,-0.46618 0.4737,-0.57359 0.27156,-0.68273 0.03482,-0.73393 -0.19436,-0.71806 c -0.22551,0.01561 -0.42942,0.09519 -0.5765,0.22496 -0.14617,0.12896 -0.22714,0.2995 -0.22908,0.48247 -1.1e-4,0.00978 -7e-5,0.01957 1.2e-4,0.02935 z"
         id="path59"
         inkscape:connector-curvature="0"
         style="fill:#000000;fill-opacity:1" />
      <path
         d="M -0.95293,0.30318 C -1.0099,0.12413 -0.9852,-0.06733 -0.8832,-0.2374 c 0.10253,-0.17094 0.27653,-0.30922 0.491,-0.39018 0.218,-0.08229 0.4633,-0.09989 0.69082,-0.04955 0.22383,0.04952 0.41578,0.16156 0.54165,0.31611 0.12524,0.15378 0.17701,0.33976 0.14618,0.52511 C 0.98807,0.1543 0.98956,0.1445 0.99089,0.13467 1.0158,-0.04861 0.96022,-0.23101 0.83369,-0.38119 c -0.12723,-0.15103 -0.31821,-0.26 -0.5398,-0.30797 -0.22511,-0.04873 -0.46726,-0.03137 -0.68312,0.049 -0.21246,0.0791 -0.38594,0.2142 -0.49032,0.38183 -0.10381,0.16671 -0.13279,0.35518 -0.08198,0.53303 0.00272,0.00953 0.00559,0.01903 0.0086,0.02848 z"
         id="path61"
         inkscape:connector-curvature="0"
         style="fill:#000000;fill-opacity:1" />
      <path
         d="m -0.84079,0.54137 c -0.09845,-0.1529 -0.12279,-0.33853 -0.0688,-0.52471 0.05438,-0.18752 0.18475,-0.3637 0.36826,-0.49761 0.18666,-0.13621 0.41607,-0.21975 0.64661,-0.23548 0.22664,-0.01545 0.43978,0.03563 0.60201,0.14426 0.16107,0.10787 0.2618,0.26567 0.28473,0.44608 C 0.99082,-0.13555 0.98948,-0.14499 0.98801,-0.15441 0.96035,-0.33139 0.85716,-0.48503 0.69586,-0.58939 0.53334,-0.69454 0.32186,-0.74316 0.09763,-0.72691 c -0.22799,0.01652 -0.45462,0.09905 -0.63985,0.23301 -0.18216,0.13175 -0.31285,0.30498 -0.36969,0.49002 -0.05642,0.18365 -0.03664,0.36766 0.05598,0.52098 0.00494,0.00816 0.00998,0.01625 0.01514,0.02427 z"
         id="path63"
         inkscape:connector-curvature="0"
         style="fill:#000000;fill-opacity:1" />
      <path
         d="M -0.7011,0.71306 C -0.82145,0.59474 -0.87936,0.42987 -0.86517,0.24595 c 0.01436,-0.1862 0.10172,-0.38051 0.24721,-0.54978 0.14823,-0.17245 0.34735,-0.30794 0.56218,-0.38251 0.21086,-0.0732 0.42367,-0.08314 0.60214,-0.02815 0.1763,0.05432 0.30839,0.1687 0.37428,0.32409 C 0.9172,-0.39852 0.91365,-0.4066 0.90999,-0.41463 0.8411,-0.56582 0.70823,-0.67614 0.53293,-0.72768 0.3549,-0.78002 0.14379,-0.7686 -0.06513,-0.6953 c -0.21283,0.07468 -0.41013,0.20892 -0.55772,0.37949 -0.14487,0.16742 -0.23299,0.35961 -0.24966,0.54442 -0.01641,0.18198 0.03744,0.34608 0.15279,0.46565 0.00612,0.00635 0.01233,0.01262 0.01862,0.0188 z"
         id="path65"
         inkscape:connector-curvature="0"
         style="fill:#000000;fill-opacity:1" />
      <path
         d="M -0.56286,0.82655 C -0.68756,0.74163 -0.76172,0.60188 -0.77345,0.42962 -0.78539,0.2544 -0.73204,0.05587 -0.62219,-0.1332 c 0.11146,-0.19185 0.27429,-0.36225 0.46088,-0.48231 0.18389,-0.11832 0.37978,-0.18062 0.55536,-0.17666 0.17262,0.0039 0.31559,0.07163 0.40608,0.19235 -0.00479,-0.0064 -0.00969,-0.01277 -0.01468,-0.01911 -0.1145,-0.1453 -0.30648,-0.20831 -0.53086,-0.17418 -0.23584,0.03587 -0.48507,0.17564 -0.68348,0.38328 -0.19842,0.20764 -0.32672,0.46295 -0.35184,0.70019 -0.0239,0.2257 0.04777,0.41461 0.19812,0.52239 0.00653,0.00468 0.01311,0.00928 0.01975,0.0138 z"
         id="path67"
         inkscape:connector-curvature="0"
         style="fill:#000000;fill-opacity:1" />
      <path
         d="M -0.43784,0.89905 C -0.58105,0.82931 -0.66283,0.66994 -0.66456,0.45703 c -0.00186,-0.22785 0.08811,-0.49564 0.24682,-0.73454 0.15871,-0.2389 0.3707,-0.42563 0.58146,-0.51224 0.19695,-0.08093 0.37556,-0.06731 0.49536,0.03768 C 0.65367,-0.75681 0.64811,-0.76158 0.64239,-0.76638 0.52164,-0.86759 0.34358,-0.87829 0.14797,-0.796 c -0.20911,0.08797 -0.419,0.27406 -0.57659,0.51126 -0.15757,0.23719 -0.24776,0.5028 -0.24781,0.72966 -4e-5,0.21222 0.07883,0.37221 0.21893,0.44429 0.0064,0.00329 0.01295,0.00657 0.01966,0.00984 z"
         id="path69"
         inkscape:connector-curvature="0"
         style="fill:#000000;fill-opacity:1" />
      <path
         d="M -0.32733,0.94491 C -0.44868,0.90287 -0.52407,0.76843 -0.53716,0.57052 -0.5514,0.35531 -0.49069,0.08473 -0.37032,-0.17297 -0.24994,-0.43068 -0.08139,-0.65089 0.09279,-0.77809 0.25297,-0.89506 0.40447,-0.92352 0.51458,-0.85744 0.50868,-0.86099 0.50284,-0.86441 0.49707,-0.86771 0.38678,-0.93089 0.23598,-0.90033 0.07685,-0.78244 c -0.17279,0.12801 -0.33984,0.34744 -0.45953,0.60367 -0.1197,0.25624 -0.18077,0.52517 -0.16805,0.73984 0.01171,0.1977 0.08505,0.33297 0.20428,0.377 0.00647,0.00239 0.01284,0.00466 0.01912,0.00684 z"
         id="path71"
         inkscape:connector-curvature="0"
         style="fill:#000000;fill-opacity:1" />
      <path
         d="M -0.22871,0.97349 C -0.32155,0.95168 -0.38223,0.83683 -0.39813,0.6525 c -0.0176,-0.20401 0.02122,-0.47482 0.10678,-0.74483 0.08557,-0.27 0.20981,-0.51373 0.3417,-0.67037 0.11916,-0.14154 0.23492,-0.20048 0.32337,-0.16484 -0.00599,-0.00241 -0.01191,-0.00473 -0.01775,-0.00696 -0.08816,-0.03358 -0.2032,0.0268 -0.32156,0.16895 -0.1308,0.15709 -0.25405,0.40009 -0.33925,0.66894 -0.0852,0.26886 -0.1244,0.53848 -0.10796,0.74224 0.01488,0.18438 0.07415,0.3 0.16557,0.32333 0.00626,0.00159 0.01243,0.0031 0.01852,0.00453 z"
         id="path73"
         inkscape:connector-curvature="0"
         style="fill:#000000;fill-opacity:1" />
      <path
         d="M -0.13853,0.99036 C -0.19874,0.98194 -0.23945,0.88185 -0.25253,0.70962 -0.26741,0.51385 -0.24529,0.24236 -0.1917,-0.03682 -0.13811,-0.31599 -0.05814,-0.57637 0.02816,-0.75271 0.10408,-0.90785 0.17894,-0.98574 0.23799,-0.97127 0.23208,-0.97272 0.22616,-0.97411 0.22023,-0.97545 0.16177,-0.98865 0.08766,-0.90997 0.01242,-0.7546 c -0.08551,0.17658 -0.1649,0.43653 -0.21837,0.71506 -0.05346,0.27854 -0.07596,0.54941 -0.0619,0.7451 0.01237,0.17219 0.05208,0.27272 0.11128,0.28211 0.006,9.5e-4 0.01202,0.00185 0.01804,0.00269 z"
         id="path75"
         inkscape:connector-curvature="0"
         style="fill:#000000;fill-opacity:1" />
      <path
         d="M -0.05345,0.99857 C -0.09036,0.99659 -0.11032,0.81522 -0.10612,0.51926 c 0.00458,-0.32295 0.03713,-0.72917 0.08404,-1.04874 0.043,-0.29288 0.09159,-0.46879 0.12835,-0.46486 -0.0059,-6.3e-4 -0.0118,-0.00121 -0.01771,-0.00173 -0.03578,-0.00318 -0.08341,0.17313 -0.12583,0.46603 -0.04624,0.31929 -0.07874,0.72475 -0.08394,1.04734 -0.00477,0.29594 0.01417,0.4776 0.05,0.48016 0.00591,4.2e-4 0.01183,7.9e-4 0.01776,0.00111 z"
         id="path77"
         inkscape:connector-curvature="0"
         style="fill:#000000;fill-opacity:1" />
    </g>
    <g
       id="front"
       style="opacity:1;fill:#000000;fill-opacity:1">
      <path
         d="m 0.28026,-0.95993 c -0.17884,-0.05221 -0.38168,-0.05221 -0.56052,0 -0.01695,0.00496 -0.03467,0.01061 -0.053,0.0171 0.10282,-0.03635 0.21717,-0.05533 0.33326,-0.05533 0.11609,0 0.23044,0.01898 0.33326,0.05533 -0.01834,-0.00649 -0.03605,-0.01215 -0.053,-0.0171 z"
         id="parallel_-40.0_front"
         inkscape:connector-curvature="0"
         style="fill:#000000;fill-opacity:1" />
      <path
         d="M 0.62763,-0.77851 C 0.47327,-0.90296 0.24301,-0.9751 0,-0.9751 c -0.24301,0 -0.47327,0.07214 -0.62763,0.19659 -0.00784,0.00632 -0.01559,0.01276 -0.02324,0.01932 0.1021,-0.08753 0.24206,-0.15241 0.40126,-0.18598 0.16238,-0.03424 0.33684,-0.03424 0.49922,0 0.1592,0.03357 0.29916,0.09845 0.40126,0.18598 -0.00765,-0.00656 -0.0154,-0.013 -0.02324,-0.01932 z"
         id="parallel_-30.0_front"
         inkscape:connector-curvature="0"
         style="fill:#000000;fill-opacity:1" />
      <path
         d="M 0.81647,-0.57739 C 0.72146,-0.71174 0.5513,-0.81768 0.34043,-0.87371 c -0.21815,-0.05797 -0.4627,-0.05797 -0.68086,-1e-5 -0.21087,0.05604 -0.38103,0.16198 -0.47604,0.29633 -0.0049,0.00693 -0.00971,0.01392 -0.01443,0.02097 0.09304,-0.13894 0.26555,-0.24921 0.4814,-0.30766 0.2236,-0.06056 0.4754,-0.06056 0.699,0 0.21585,0.05845 0.38836,0.16872 0.4814,0.30766 C 0.82618,-0.56347 0.82137,-0.57046 0.81647,-0.57739 Z"
         id="parallel_-20.0_front"
         inkscape:connector-curvature="0"
         style="fill:#000000;fill-opacity:1" />
      <path
         d="M 0.93192,-0.36266 C 0.86411,-0.53692 0.67789,-0.68333 0.4232,-0.7625 c -0.26688,-0.08296 -0.57953,-0.08296 -0.84642,0 -0.25468,0.07917 -0.44089,0.22558 -0.5087,0.39984 -0.0029,0.00744 -0.00564,0.01476 -0.00826,0.02197 0.04752,-0.13112 0.16254,-0.24863 0.32715,-0.33415 C -0.4404,-0.76454 -0.22369,-0.8136 0,-0.8136 c 0.22368,0 0.44039,0.04906 0.61303,0.13875 0.16461,0.08552 0.27963,0.20304 0.32715,0.33416 C 0.93756,-0.3479 0.93482,-0.35522 0.93192,-0.36266 Z"
         id="parallel_-10.0_front"
         inkscape:connector-curvature="0"
         style="fill:#000000;fill-opacity:1" />
      <path
         d="M 0.99003,-0.14086 C 0.96894,-0.28907 0.86068,-0.4275 0.68547,-0.53016 0.5007,-0.63842 0.25526,-0.69883 0,-0.69883 c -0.25526,0 -0.50071,0.06041 -0.68547,0.16867 -0.17521,0.10266 -0.28347,0.24109 -0.30456,0.3893 -0.00108,0.00757 -0.00205,0.01501 -0.00292,0.02231 0.01786,-0.1496 0.12493,-0.28998 0.30084,-0.39431 0.18563,-0.11008 0.4338,-0.17165 0.69211,-0.17165 0.25831,0 0.50648,0.06157 0.69211,0.17166 0.17591,0.10432 0.28298,0.2447 0.30084,0.3943 -8.7e-4,-0.0073 -0.00184,-0.01474 -0.00292,-0.02231 z"
         id="parallel_0.0_front"
         inkscape:connector-curvature="0"
         style="fill:#000000;fill-opacity:1" />
      <path
         d="M 0.99669,0.08129 C 1.00957,-0.07657 0.91662,-0.23106 0.73825,-0.34804 0.54919,-0.47204 0.28113,-0.54278 -1e-5,-0.54278 c -0.28113,0 -0.54919,0.07074 -0.73825,0.19474 -0.17837,0.11699 -0.2713,0.27147 -0.25843,0.42933 5.9e-4,0.00719 0.00126,0.01451 0.00204,0.02197 -0.01644,-0.15829 0.07458,-0.31396 0.25278,-0.43208 0.18898,-0.12527 0.45872,-0.19689 0.74187,-0.19689 0.28315,0 0.55289,0.07162 0.74187,0.19689 0.1782,0.11812 0.26922,0.27378 0.25278,0.43208 C 0.99543,0.0958 0.9961,0.08848 0.99669,0.08129 Z"
         id="parallel_10.0_front"
         inkscape:connector-curvature="0"
         style="fill:#000000;fill-opacity:1" />
      <path
         d="M 0.95487,0.29702 C 0.99355,0.17268 0.95828,0.04442 0.85477,-0.0669 0.74437,-0.18564 0.56348,-0.27744 0.34528,-0.32541 c -0.22239,-0.0489 -0.46817,-0.0489 -0.69057,0 -0.21819,0.04797 -0.39908,0.13977 -0.50949,0.25851 -0.1035,0.11133 -0.13877,0.23958 -0.10009,0.36392 0.00222,0.00715 0.00448,0.01414 0.00677,0.02097 -0.04154,-0.12388 -0.00859,-0.25223 0.09347,-0.36391 0.10891,-0.11917 0.28935,-0.21156 0.50778,-0.25994 0.22324,-0.04944 0.47045,-0.04944 0.6937,0 0.21843,0.04838 0.39887,0.14076 0.50778,0.25994 C 0.95669,0.06576 0.98964,0.19411 0.9481,0.31799 0.95047,0.31089 0.95273,0.3039 0.95487,0.29702 Z"
         id="parallel_20.0_front"
         inkscape:connector-curvature="0"
         style="fill:#000000;fill-opacity:1" />
      <path
         d="M 0.86615,0.49979 C 0.934,0.3822 0.92284,0.25482 0.83474,0.14149 0.74086,0.02072 0.56669,-0.07502 0.3489,-0.12551 0.12555,-0.1773 -0.12554,-0.1773 -0.34889,-0.12552 c -0.2178,0.0505 -0.39197,0.14624 -0.48585,0.26701 -0.0881,0.11333 -0.09926,0.24071 -0.03141,0.3583 0.00367,0.00636 0.00748,0.0128 0.01144,0.01932 -0.0708,-0.11657 -0.06225,-0.24357 0.02403,-0.35687 0.09189,-0.12068 0.26494,-0.21661 0.48221,-0.26725 0.22293,-0.05196 0.474,-0.05196 0.69693,0 0.21727,0.05064 0.39033,0.14657 0.48222,0.26725 0.08628,0.1133 0.09483,0.2403 0.02403,0.35687 C 0.85852,0.51284 0.86234,0.5064 0.86615,0.49979 Z"
         id="parallel_30.0_front"
         inkscape:connector-curvature="0"
         style="fill:#000000;fill-opacity:1" />
      <path
         d="M 0.73002,0.68343 C 0.82762,0.57918 0.84496,0.45827 0.77826,0.34714 0.70757,0.22933 0.54872,0.1329 0.34032,0.08137 c -0.2161,-0.05344 -0.46453,-0.05344 -0.68063,0 -0.20841,0.05153 -0.36726,0.14796 -0.43795,0.26577 -0.0667,0.11113 -0.04936,0.23203 0.04824,0.33629 0.00538,0.00574 0.01084,0.01144 0.01639,0.01709 C -0.81427,0.598 -0.83479,0.47805 -0.77066,0.36735 -0.7027,0.25004 -0.54583,0.15365 -0.33877,0.10207 -0.12386,0.04853 0.12385,0.04852 0.33876,0.10206 0.54582,0.15365 0.70269,0.25004 0.77066,0.36735 0.83479,0.47805 0.81427,0.59799 0.71363,0.70052 0.71916,0.69489 0.72462,0.68919 0.73002,0.68343 Z"
         id="parallel_40.0_front"
         inkscape:connector-curvature="0"
         style="fill:#000000;fill-opacity:1" />
      <path
         d="M 0.53891,0.84236 C 0.6694,0.75888 0.72286,0.64942 0.68505,0.54335 0.64549,0.43234 0.51032,0.33711 0.31879,0.28543 c -0.20005,-0.05399 -0.43753,-0.05399 -0.63759,0 -0.19152,0.05168 -0.32669,0.14692 -0.36625,0.25792 -0.03781,0.10607 0.01565,0.21553 0.14614,0.29901 0.00764,0.00489 0.01534,0.00967 0.02311,0.01435 C -0.62633,0.79016 -0.68593,0.70461 -0.68322,0.6165 -0.68039,0.52488 -0.6104,0.43729 -0.48765,0.37187 -0.35918,0.3034 -0.18344,0.26481 0,0.26481 c 0.18344,0 0.35918,0.03859 0.48765,0.10706 C 0.6104,0.43729 0.68039,0.52488 0.68322,0.6165 0.68593,0.70461 0.62633,0.79016 0.5158,0.85671 0.52357,0.85203 0.53127,0.84725 0.53891,0.84236 Z"
         id="parallel_50.0_front"
         inkscape:connector-curvature="0"
         style="fill:#000000;fill-opacity:1" />
      <path
         d="M 0.23596,0.97176 C 0.38537,0.93548 0.49485,0.86676 0.53412,0.78469 0.57214,0.70524 0.54056,0.62125 0.44757,0.55466 0.3444,0.48077 0.17769,0.43688 1e-5,0.43688 c -0.17769,0 -0.3444,0.04389 -0.44758,0.11777 -0.09299,0.0666 -0.12457,0.15059 -0.08655,0.23004 0.03927,0.08207 0.14875,0.15079 0.29816,0.18707 0.01641,0.00399 0.03373,0.00775 0.05192,0.01116 C -0.3409,0.95355 -0.46171,0.88842 -0.51057,0.807 -0.55742,0.7289 -0.53305,0.64418 -0.44413,0.57623 -0.34512,0.50057 -0.17847,0.45508 0,0.45508 c 0.17848,0 0.34512,0.04549 0.44413,0.12115 C 0.53305,0.64418 0.55742,0.7289 0.51057,0.80699 0.46171,0.88842 0.3409,0.95355 0.18404,0.98292 0.20063,0.97981 0.21797,0.97613 0.23596,0.97176 Z"
         id="parallel_60.0_front"
         inkscape:connector-curvature="0"
         style="fill:#000000;fill-opacity:1" />
      <path
         d="M 0.01583,0.99107 C 0.13457,0.9886 0.24425,0.9586 0.31257,0.90992 0.37691,0.86408 0.39789,0.80642 0.37001,0.75217 0.34128,0.69628 0.26369,0.64984 0.15881,0.62583 0.04748,0.60035 -0.08152,0.60313 -0.18807,0.6333 -0.28789,0.66157 -0.35705,0.7108 -0.37652,0.76736 -0.39545,0.82235 -0.36551,0.87875 -0.2945,0.92178 -0.2184,0.9679 -0.10356,0.99355 0.01583,0.99107 Z M 0.01514,0.98852 C -0.09873,0.99088 -0.20824,0.96647 -0.28083,0.92257 -0.34863,0.88157 -0.37718,0.8278 -0.35904,0.77541 -0.34042,0.7216 -0.27449,0.67478 -0.17937,0.64789 -0.07777,0.61916 0.04524,0.6165 0.15142,0.64076 0.25135,0.66359 0.32532,0.70774 0.35279,0.7609 0.3795,0.81259 0.35953,0.86755 0.29812,0.91124 0.23297,0.95759 0.12838,0.98616 0.01514,0.98852 Z"
         id="parallel_70.0_front"
         inkscape:connector-curvature="0"
         style="fill:#000000;fill-opacity:1" />
      <path
         d="M 0.00848,0.95037 C 0.08053,0.94886 0.14531,0.92825 0.17798,0.8965 0.20879,0.86655 0.20666,0.8309 0.17233,0.8019 0.13527,0.77059 0.06641,0.75183 -0.00699,0.7531 c -0.07403,0.00128 -0.1405,0.02272 -0.17273,0.05564 -0.02964,0.03027 -0.02607,0.06592 0.00949,0.0946 0.03786,0.03054 0.10627,0.04855 0.17871,0.04703 z M 0.0077,0.94442 C -0.05795,0.9458 -0.11994,0.92949 -0.15424,0.90183 -0.18647,0.87585 -0.18966,0.84354 -0.16272,0.81613 -0.13347,0.78637 -0.07327,0.767 -0.00625,0.76586 0.06012,0.76473 0.12239,0.78165 0.15599,0.80991 0.1872,0.83617 0.18919,0.86847 0.16128,0.89562 0.1317,0.92438 0.073,0.94305 0.0077,0.94442 Z"
         id="parallel_80.0_front"
         inkscape:connector-curvature="0"
         style="fill:#000000;fill-opacity:1" />
      <path
         d="M 0.01186,0.99993 C -5.4e-4,1.00008 -0.01668,0.82825 -0.031,0.54301 c -0.01655,-0.32965 -0.02782,-0.7537 -0.0288,-1.08374 -8.5e-4,-0.28551 0.00614,-0.45791 0.01853,-0.45842 0.0059,-2.4e-4 0.0118,-4.3e-4 0.0177,-5.7e-4 -0.0114,2.7e-4 -0.01747,0.17265 -0.01608,0.45833 0.00161,0.33006 0.01288,0.75421 0.02881,1.08394 0.01378,0.28546 0.029,0.45735 0.04041,0.45701 -0.00592,1.8e-4 -0.01183,3e-4 -0.01771,3.7e-4 z"
         id="meridian_80.0_front"
         inkscape:connector-curvature="0"
         style="fill:#000000;fill-opacity:1" />
      <path
         d="M 0.09555,0.99542 C 0.05357,0.99945 0.0015,0.91765 -0.05115,0.76469 -0.11409,0.58181 -0.17225,0.31355 -0.21073,0.02847 c -0.03847,-0.28508 -0.05351,-0.55917 -0.0413,-0.7522 0.01021,-0.16147 0.03874,-0.25417 0.08028,-0.26141 0.0059,-0.00103 0.01181,-0.00201 0.01774,-0.00293 -0.04103,0.0064 -0.06907,0.09846 -0.07892,0.2596 -0.0118,0.19309 0.00356,0.46805 0.04218,0.75418 0.03861,0.28613 0.09669,0.55534 0.15925,0.73841 0.05222,0.15279 0.10367,0.23414 0.14492,0.22943 -0.00595,6.8e-4 -0.01191,0.0013 -0.01787,0.00187 z"
         id="path94"
         inkscape:connector-curvature="0"
         style="fill:#000000;fill-opacity:1" />
      <path
         d="M 0.18278,0.98315 C 0.1085,0.99696 0.01538,0.92337 -0.07894,0.7761 -0.18636,0.60839 -0.28621,0.35944 -0.35432,0.08935 c -0.0681,-0.27009 -0.09823,-0.53662 -0.08318,-0.73521 0.01321,-0.17439 0.0603,-0.28335 0.13225,-0.30641 0.00581,-0.00186 0.01173,-0.00371 0.01777,-0.00552 -0.07191,0.02159 -0.11898,0.12964 -0.13217,0.30379 -0.01506,0.19889 0.01534,0.4669 0.08387,0.73866 0.06853,0.27176 0.16883,0.52214 0.2764,0.69012 0.09419,0.14708 0.18687,0.2199 0.26042,0.2048 C 0.19507,0.98081 0.18898,0.982 0.18278,0.98315 Z"
         id="path96"
         inkscape:connector-curvature="0"
         style="fill:#000000;fill-opacity:1" />
      <path
         d="M 0.27675,0.96094 C 0.17453,0.99038 0.04461,0.93403 -0.08818,0.80253 -0.23426,0.65786 -0.37194,0.434 -0.46962,0.18212 c -0.09768,-0.25187 -0.14694,-0.51001 -0.1366,-0.71535 0.00941,-0.18664 0.06736,-0.31586 0.1627,-0.36304 0.00597,-0.00295 0.01187,-0.00579 0.01768,-0.00853 -0.09654,0.04544 -0.15528,0.17465 -0.16472,0.36263 -0.01032,0.20574 0.03925,0.46496 0.13736,0.71794 0.09811,0.25298 0.23628,0.47783 0.38262,0.62281 C 0.06313,0.93104 0.19363,0.98686 0.29556,0.95532 0.28942,0.95722 0.28315,0.9591 0.27675,0.96094 Z"
         id="path98"
         inkscape:connector-curvature="0"
         style="fill:#000000;fill-opacity:1" />
      <path
         d="M 0.38089,0.92462 C 0.25775,0.97535 0.09791,0.94444 -0.06819,0.83769 -0.24572,0.7236 -0.41664,0.5317 -0.54398,0.30344 -0.67131,0.07517 -0.74479,-0.17107 -0.7486,-0.38207 c -0.00358,-0.1974 0.05411,-0.34965 0.16196,-0.42778 0.00559,-0.00405 0.01133,-0.00811 0.01721,-0.01219 -0.10993,0.07615 -0.16922,0.22813 -0.16631,0.42662 0.0031,0.21215 0.07701,0.46072 0.20556,0.69117 0.12856,0.23046 0.30123,0.42392 0.48012,0.53802 C 0.1173,0.94052 0.27777,0.96991 0.40031,0.91638 0.39375,0.91925 0.38728,0.92199 0.38089,0.92462 Z"
         id="path100"
         inkscape:connector-curvature="0"
         style="fill:#000000;fill-opacity:1" />
      <path
         d="M 0.49846,0.86691 C 0.36482,0.94375 0.18566,0.94642 -0.00567,0.87434 -0.20673,0.79859 -0.40644,0.64588 -0.56391,0.44739 -0.72138,0.24891 -0.82468,0.0197 -0.85272,-0.19333 c -0.02667,-0.20271 0.01667,-0.37658 0.1219,-0.48924 0.00533,-0.00571 0.01063,-0.01125 0.01589,-0.01662 -0.10857,0.11101 -0.1544,0.28527 -0.12869,0.48974 0.02703,0.21499 0.1311,0.44723 0.29055,0.64821 0.15946,0.20099 0.36193,0.35516 0.56515,0.43038 C 0.20534,0.94068 0.38546,0.9357 0.51827,0.85522 0.51158,0.85927 0.50498,0.86317 0.49846,0.86691 Z"
         id="path102"
         inkscape:connector-curvature="0"
         style="fill:#000000;fill-opacity:1" />
      <path
         d="M 0.63071,0.77602 C 0.49911,0.88297 0.31285,0.92578 0.10567,0.8966 -0.10816,0.86649 -0.32938,0.76181 -0.51542,0.60272 -0.70145,0.44364 -0.8392,0.24135 -0.90214,0.03479 c -0.06098,-0.20013 -0.04761,-0.39078 0.03762,-0.53739 0.00423,-0.00728 0.00856,-0.01451 0.01298,-0.02168 -0.08987,0.14596 -0.10631,0.33822 -0.04621,0.54109 0.06206,0.20946 0.20128,0.41525 0.39017,0.57677 0.18889,0.16153 0.4138,0.2671 0.63035,0.29589 C 0.3325,0.91736 0.51988,0.87127 0.65012,0.75983 0.64372,0.76531 0.63725,0.7707 0.63071,0.77602 Z"
         id="path104"
         inkscape:connector-curvature="0"
         style="fill:#000000;fill-opacity:1" />
      <path
         d="M 0.77214,0.63545 C 0.65874,0.77325 0.48208,0.86084 0.27297,0.88289 0.05845,0.90551 -0.17602,0.85767 -0.38749,0.74814 -0.59896,0.63861 -0.77332,0.47471 -0.87861,0.28644 -0.98125,0.10293 -1.01163,-0.0919 -0.96452,-0.26403 c 0.00243,-0.00887 0.00499,-0.01771 0.00766,-0.02652 -0.05257,0.17312 -0.02526,0.37103 0.07706,0.55816 0.10501,0.19205 0.28187,0.35964 0.49717,0.47115 0.2153,0.11152 0.45423,0.15927 0.67168,0.13423 C 0.50093,0.8486 0.67832,0.75671 0.78939,0.61389 0.78374,0.62116 0.77799,0.62834 0.77214,0.63545 Z"
         id="path106"
         inkscape:connector-curvature="0"
         style="fill:#000000;fill-opacity:1" />
      <path
         d="M 0.90274,0.43018 C 0.82421,0.59498 0.67462,0.72712 0.4793,0.80415 0.27951,0.88295 0.04464,0.89907 -0.18375,0.84968 -0.41213,0.80029 -0.61936,0.68856 -0.76874,0.53425 -0.91478,0.3834 -0.99641,0.20125 -0.99982,0.01872 c -1.9e-4,-0.00978 -2.3e-4,-0.01956 -1.2e-4,-0.02935 -0.00197,0.18546 0.07736,0.37201 0.22414,0.52696 0.15021,0.15856 0.3611,0.27354 0.59408,0.32392 C 0.05127,0.89064 0.29083,0.87307 0.49312,0.79075 0.69082,0.7103 0.84014,0.5732 0.91498,0.4035 0.91103,0.41245 0.90695,0.42135 0.90274,0.43018 Z"
         id="path108"
         inkscape:connector-curvature="0"
         style="fill:#000000;fill-opacity:1" />
      <path
         d="M 0.98645,0.16409 C 0.95637,0.34488 0.84955,0.51394 0.68395,0.64274 0.51466,0.77442 0.29465,0.85571 0.06257,0.87236 -0.1695,0.889 -0.39886,0.83994 -0.58522,0.73377 -0.76751,0.62992 -0.89736,0.47784 -0.95293,0.30318 -0.95594,0.29373 -0.95881,0.28423 -0.96153,0.2747 c 0.05117,0.17912 0.18007,0.33622 0.36429,0.44389 0.1884,0.11012 0.42227,0.16133 0.65912,0.14434 C 0.29874,0.84595 0.52291,0.76189 0.69367,0.62601 0.86064,0.49315 0.9658,0.31926 0.99089,0.13467 0.98956,0.14449 0.98807,0.1543 0.98645,0.16409 Z"
         id="path110"
         inkscape:connector-curvature="0"
         style="fill:#000000;fill-opacity:1" />
      <path
         d="M 0.99202,-0.12609 C 1.01484,0.05347 0.95918,0.24425 0.83453,0.41347 0.70688,0.58677 0.51516,0.72624 0.29383,0.80684 0.0725,0.88744 -0.16401,0.90392 -0.37321,0.85329 -0.57748,0.80386 -0.74279,0.69356 -0.84079,0.54137 -0.84595,0.53335 -0.851,0.52526 -0.85593,0.5171 -0.76092,0.67436 -0.5953,0.78936 -0.38836,0.8417 -0.17636,0.89532 0.0648,0.87958 0.2904,0.79743 0.516,0.71527 0.7108,0.57224 0.83868,0.39485 0.9635,0.22169 1.01638,0.02711 0.98801,-0.15441 c 0.00147,0.00942 0.00281,0.01886 0.00401,0.02832 z"
         id="path112"
         inkscape:connector-curvature="0"
         style="fill:#000000;fill-opacity:1" />
      <path
         d="M 0.92064,-0.3904 C 0.98886,-0.22954 0.9818,-0.03492 0.90067,0.15882 0.81724,0.35802 0.66116,0.54281 0.4617,0.67852 0.26225,0.81424 0.03307,0.8916 -0.18286,0.89609 -0.39287,0.90045 -0.5765,0.83557 -0.7011,0.71306 -0.70739,0.70688 -0.7136,0.70061 -0.71972,0.69426 c 0.1228,0.12731 0.30741,0.19598 0.52013,0.19343 0.21883,-0.00263 0.45214,-0.08045 0.65495,-0.21845 0.20282,-0.138 0.36085,-0.32646 0.44363,-0.52905 0.08046,-0.19693 0.08434,-0.39386 0.011,-0.55482 0.00366,0.00803 0.00721,0.0161 0.01065,0.02423 z"
         id="path114"
         inkscape:connector-curvature="0"
         style="fill:#000000;fill-opacity:1" />
      <path
         d="M 0.80013,-0.59982 C 0.89785,-0.46948 0.9281,-0.28577 0.88524,-0.08258 0.84078,0.12824 0.7208,0.34496 0.54905,0.52468 0.37731,0.70441 0.16627,0.8341 -0.04231,0.88809 -0.24334,0.94012 -0.42822,0.91824 -0.56286,0.82655 -0.5695,0.82203 -0.57608,0.81743 -0.58261,0.81275 -0.44902,0.90851 -0.26305,0.93318 -0.05975,0.88202 0.15131,0.82891 0.36558,0.69798 0.53972,0.51574 0.71386,0.3335 0.83492,0.1135 0.87839,-0.09975 0.92027,-0.30517 0.88718,-0.48982 0.78545,-0.61893 c 0.00499,0.00634 0.00989,0.01271 0.01468,0.01911 z"
         id="path116"
         inkscape:connector-curvature="0"
         style="fill:#000000;fill-opacity:1" />
      <path
         d="m 0.65908,-0.75207 c 0.10863,0.09519 0.16103,0.25865 0.14723,0.45955 C 0.79171,-0.0798 0.704,0.15883 0.56158,0.37318 0.41918,0.58751 0.23321,0.76081 0.0428,0.85669 -0.13703,0.94725 -0.308,0.96229 -0.43784,0.89905 -0.44455,0.89578 -0.45111,0.8925 -0.4575,0.88921 -0.32837,0.95564 -0.15665,0.94252 0.02475,0.85225 0.21697,0.7566 0.40526,0.58168 0.54928,0.36491 0.69329,0.14813 0.78155,-0.09323 0.79523,-0.30751 0.80813,-0.50971 0.75367,-0.6731 0.64239,-0.76638 c 0.00572,0.0048 0.01128,0.00957 0.01669,0.01431 z"
         id="path118"
         inkscape:connector-curvature="0"
         style="fill:#000000;fill-opacity:1" />
      <path
         d="m 0.51458,-0.85744 c 0.10325,0.06196 0.16267,0.20261 0.16681,0.3951 0.00448,0.20842 -0.0562,0.4611 -0.16866,0.70184 C 0.40028,0.48025 0.24544,0.68895 0.08272,0.81928 -0.06755,0.93964 -0.21355,0.98432 -0.32733,0.94491 -0.33361,0.94273 -0.33998,0.94046 -0.34645,0.93807 -0.23312,0.97992 -0.08655,0.93629 0.06479,0.81552 0.22835,0.685 0.38431,0.4749 0.49758,0.23242 0.61085,-0.01006 0.67187,-0.2645 0.667,-0.4737 0.6625,-0.66726 0.6019,-0.80766 0.49707,-0.86771 c 0.00577,0.0033 0.01161,0.00672 0.01751,0.01027 z"
         id="path120"
         inkscape:connector-curvature="0"
         style="fill:#000000;fill-opacity:1" />
      <path
         d="m 0.37372,-0.92754 c 0.0848,0.03417 0.13852,0.15287 0.1508,0.33358 C 0.53825,-0.39205 0.49913,-0.12954 0.41629,0.13188 0.33344,0.39334 0.21421,0.6305 0.08668,0.78766 -0.02744,0.92831 -0.13972,0.9944 -0.22871,0.97349 -0.2348,0.97206 -0.24097,0.97055 -0.24723,0.96896 -0.15891,0.99149 -0.04682,0.92625 0.06747,0.78559 0.19539,0.62817 0.31532,0.38956 0.39873,0.12637 c 0.0834,-0.26319 0.1228,-0.52733 0.1089,-0.7297 -0.01242,-0.18082 -0.06647,-0.29872 -0.15166,-0.33117 0.00584,0.00223 0.01176,0.00455 0.01775,0.00696 z"
         id="path122"
         inkscape:connector-curvature="0"
         style="fill:#000000;fill-opacity:1" />
      <path
         d="m 0.23799,-0.97127 c 0.05728,0.01404 0.09579,0.11405 0.10827,0.28162 0.01457,0.1956 -0.00757,0.46619 -0.06098,0.74442 C 0.23186,0.33306 0.15224,0.59265 0.06626,0.76895 -0.00735,0.91992 -0.08013,0.99853 -0.13853,0.99036 -0.14453,0.98952 -0.15054,0.98862 -0.15657,0.98767 -0.0989,0.99681 -0.02665,0.91879 0.04667,0.76795 0.13249,0.59141 0.21226,0.33066 0.26593,0.05105 0.3196,-0.22855 0.34204,-0.50031 0.32769,-0.69608 0.31542,-0.86336 0.27719,-0.96259 0.22023,-0.97545 c 0.00593,0.00134 0.01185,0.00273 0.01776,0.00418 z"
         id="path124"
         inkscape:connector-curvature="0"
         style="fill:#000000;fill-opacity:1" />
      <path
         d="m 0.10627,-0.99434 c 0.03584,0.00383 0.05555,0.17818 0.05228,0.46379 C 0.15476,-0.20015 0.12092,0.22211 0.07204,0.54893 0.02978,0.83147 -0.01745,1.0005 -0.05345,0.99857 -0.05938,0.99825 -0.0653,0.99788 -0.07121,0.99746 -0.03622,0.99996 0.01015,0.83114 0.05194,0.54845 0.10033,0.22109 0.13425,-0.20222 0.13862,-0.53312 0.14239,-0.81889 0.12351,-0.99296 0.08856,-0.99607 c 0.00588,5.2e-4 0.01179,0.0011 0.01771,0.00173 z"
         id="path126"
         inkscape:connector-curvature="0"
         style="fill:#000000;fill-opacity:1" />
    </g>
  </g>
</svg>
